<svg version="1.1" xmlns="http://www.w3.org/2000/svg" xmlns:xlink="http://www.w3.org/1999/xlink" width="19.92186" height="20.2908" viewBox="0,0,19.92186,20.2908"><g transform="translate(-230.03907,-169.8546)"><g data-paper-data="{&quot;isPaintingLayer&quot;:true}" fill-rule="nonzero" stroke="none" stroke-width="1" stroke-linecap="butt" stroke-linejoin="miter" stroke-miterlimit="10" stroke-dasharray="" stroke-dashoffset="0" style="mix-blend-mode: normal"><g><path d="M248.95773,180.86811c0,4.65161 -4.01056,8.42363 -8.95869,8.42363c-4.94812,0 -8.95837,-3.77041 -8.95837,-8.42363c0,-4.65161 4.00992,-6.81236 8.95837,-6.81236c4.9478,-0.00032 8.95869,2.16106 8.95869,6.81236z" fill="#ec1c2c"/><g fill="#231f20"><path d="M249.96093,180.77813c0,5.17323 -4.45949,9.36727 -9.96125,9.36727c-5.5008,0 -9.96061,-4.19404 -9.96061,-9.36727c0,-4.55907 3.46494,-6.61159 8.05283,-7.03554c0,0 1.44989,-0.18572 2.92539,-0.06052c5.02209,0.23375 8.94364,2.24688 8.94364,7.09606zM248.44124,180.9155c0,-4.03522 -3.20429,-6.07877 -7.34838,-6.37848c0,0 -2.62792,0.03682 -2.70765,0.04611c-3.88889,0.42939 -6.82484,2.46878 -6.82484,6.33173c0,4.38232 3.77777,7.93627 8.43964,7.93627c4.66154,0 8.43932,-3.55331 8.44124,-7.93563z"/><path d="M242.86647,176.59754c-1.14249,0.05796 -2.23695,0.08677 -3.38168,0.21518c-0.76433,0.08581 -1.5008,0.09254 -2.06692,-0.48479c-0.12296,-0.12648 0.03778,-0.34454 0.19148,-0.24752c0.37848,0.23727 0.75984,0.33333 1.14345,0.3519c0.02498,0.02049 1.36855,-0.1569 1.98207,-0.35158c0.74031,-0.20173 1.48127,-0.36823 2.2187,-0.12456c0.35254,0.11655 0.28434,0.62184 -0.08709,0.64137z"/></g><path d="M234.05924,180.82296c0,1.09862 0.59238,1.98911 -0.0269,1.98911c-0.61927,0 -1.12072,-0.89049 -1.12072,-1.98911c0,-1.0983 0.50144,-1.98879 1.12072,-1.98879c0.61927,0 0.0269,0.89081 0.0269,1.98879z" fill="#ffffff"/></g><g><path d="M237.76113,171.3529c0.32693,-0.19532 0.6529,-0.39129 0.97951,-0.58693c0.23503,0.36119 0.47134,0.71374 0.6609,1.11495c0.69228,1.46141 0.53986,3.00512 0.52001,4.55075c-0.12007,0.0285 -0.31284,0.04899 -0.43164,0.07012c0.08261,-1.96862 -0.38585,-3.77329 -1.72879,-5.14889z" fill="#99661d"/><path d="M240.70093,175.75636c0,0 -0.07365,0.6007 -0.08037,0.71406c0,0 -1.20749,0.35991 -1.68107,0.17995l-0.01473,-0.51521c0.00961,-1.02946 -0.3106,-2.13512 -0.50016,-2.48127c-0.09062,-0.16522 -0.45565,-1.10983 -1.569,-2.09958c-0.19084,-0.16875 -0.12648,-0.48511 0.07749,-0.60775c0.57861,-0.3471 1.15562,-0.6942 1.73359,-1.04131c0.18572,-0.11111 0.40506,-0.02818 0.5309,0.13929c1.77009,2.35607 1.55748,5.46814 1.50336,5.71181zM239.88889,175.98498c0.03586,-1.42235 0.1569,-2.74415 -0.48735,-4.10406c-0.18956,-0.40122 -0.42587,-0.75376 -0.6609,-1.11495c-0.32661,0.19564 -0.65258,0.39161 -0.97951,0.58693c1.26865,1.29939 1.78674,2.87191 1.77073,4.70157v0.36887l0.35511,-0.04515z" fill="#231f20"/></g></g></g></svg>