<svg version="1.1" xmlns="http://www.w3.org/2000/svg" xmlns:xlink="http://www.w3.org/1999/xlink" width="34.86364" height="34.86364" viewBox="0,0,34.86364,34.86364"><g transform="translate(-222.56818,-162.56818)"><g data-paper-data="{&quot;isPaintingLayer&quot;:true}" fill-rule="nonzero" stroke-linecap="butt" stroke-linejoin="miter" stroke-miterlimit="10" stroke-dasharray="" stroke-dashoffset="0" style="mix-blend-mode: normal"><path d="M224.31818,195.68182v-31.36364h31.36364v31.36364z" fill="#969696" stroke="#000000" stroke-width="3.5"/><path d="M246.6059,187.59095c-0.27137,-0.38649 -0.67101,-4.82085 -2.60852,-2.77205c-0.37135,0.39268 -0.8472,3.68142 -0.32442,3.73938c1.11419,0.12354 2.24231,-0.04882 3.26279,-0.4648l-0.16708,-0.20885l0.04723,-0.03778c-0.0756,-0.07991 -0.14602,-0.16481 -0.20999,-0.25591zM248.36711,189.63585c-1.35327,0.66317 -3.93895,1.46762 -5.45953,0.77019c-2.14716,-0.98482 -1.79533,-5.56202 -0.32442,-7.00136c1.59271,-1.55852 3.48633,-1.0164 4.70711,0.35224c0,-2.65949 0,-5.31898 0,-7.97847c0.00065,-0.30045 0.4117,-2.83204 0.09251,-3.19731c-0.32927,-0.3768 -0.99953,-0.06482 -1.49992,-0.06195c-2.28378,0.01312 -4.56803,0 -6.85185,0c-0.44089,0 -4.02927,-0.28407 -4.18876,-0.04492c-0.29564,0.44332 0.32628,1.02402 0.37054,1.55503c0.15645,1.87736 0.18859,3.74572 0.18859,5.63804c0,3.32575 0.85525,12.38532 -5.04907,11.35746c-2.68356,-0.46717 -3.24352,-4.54409 -1.76217,-6.5718c0.95688,-1.3098 3.12842,-1.3446 4.49416,-1.14242c0,0 0.28006,0.04668 0.51685,0.23951c-0.02793,-1.44353 -0.19977,-2.86549 -0.19977,-3.88275c0,-1.83842 -0.02979,-3.64927 -0.18178,-5.47307c-0.06757,-0.81082 -0.56631,-2.14739 0.00017,-2.88941c0.74579,-0.97691 2.4156,-0.78102 3.40383,-0.78566c3.08593,-0.01448 6.17334,-0.01552 9.25926,0c0.91813,0.00462 2.22805,-0.1234 2.94452,0.67879c1.07263,1.20096 0.45947,3.1799 0.46288,4.58047c0,3.7037 0,7.40741 0,11.11111v1.2963c0,0.45052 -0.29792,0.83145 -0.7075,0.95654zM233.56114,185.09334c-0.34426,0.26694 -0.80564,0.19004 -0.80564,0.19004c-0.53593,-0.10426 -2.16972,-0.25793 -2.54288,0.33906c-0.45376,0.72593 -0.8596,4.27123 1.07997,3.47166c1.57436,-0.64901 2.12337,-2.23397 2.26855,-4.00076z" fill="#f3f3f3" stroke="none" stroke-width="0.5"/></g></g></svg>