<svg version="1.1" xmlns="http://www.w3.org/2000/svg" xmlns:xlink="http://www.w3.org/1999/xlink" width="79.68744" height="81.16322" viewBox="0,0,79.68744,81.16322"><g transform="translate(-200.15628,-139.41839)"><g data-paper-data="{&quot;isPaintingLayer&quot;:true}" fill-rule="nonzero" stroke="none" stroke-width="1" stroke-linecap="butt" stroke-linejoin="miter" stroke-miterlimit="10" stroke-dasharray="" stroke-dashoffset="0" style="mix-blend-mode: normal"><g><path d="M275.83091,183.47244c0,18.60646 -16.04226,33.69451 -35.83476,33.69451c-19.7925,0 -35.83348,-15.08165 -35.83348,-33.69451c0,-18.60646 16.03969,-27.24943 35.83348,-27.24943c19.79122,-0.00128 35.83476,8.64425 35.83476,27.24943z" fill="#ec1c2c"/><g fill="#231f20"><path d="M279.84372,183.11252c0,20.69291 -17.83797,37.46909 -39.845,37.46909c-22.00319,0 -39.84244,-16.77617 -39.84244,-37.46909c0,-18.2363 13.85975,-26.44635 32.21132,-28.14216c0,0 5.79955,-0.74287 11.70156,-0.24208c20.08837,0.935 35.77456,8.98751 35.77456,28.38423zM273.76495,183.66199c0,-16.14089 -12.81716,-24.31507 -29.39352,-25.51392c0,0 -10.51168,0.14729 -10.83061,0.18444c-15.55555,1.71758 -27.29938,9.87512 -27.29938,25.32692c0,17.52929 15.1111,31.7451 33.75855,31.7451c18.64616,0 33.75727,-14.21325 33.76496,-31.74254z"/><path d="M251.46589,166.39015c-4.56996,0.23183 -8.9478,0.3471 -13.52673,0.86071c-3.05731,0.34326 -6.0032,0.37016 -8.26768,-1.93916c-0.49184,-0.50592 0.15114,-1.37816 0.76593,-0.99007c1.51393,0.94909 3.03938,1.33333 4.5738,1.40762c0.09991,0.08197 5.47422,-0.6276 7.92827,-1.40634c2.96126,-0.80692 5.92507,-1.47294 8.8748,-0.49824c1.41018,0.46622 1.13737,2.48735 -0.34838,2.56548z"/></g><path d="M216.23696,183.29184c0,4.39449 2.36951,7.95645 -0.10759,7.95645c-2.4771,0 -4.48287,-3.56196 -4.48287,-7.95645c0,-4.39321 2.00576,-7.95517 4.48287,-7.95517c2.4771,0 0.10759,3.56324 0.10759,7.95517z" fill="#ffffff"/></g><g><path d="M231.04451,145.41162c1.30771,-0.7813 2.61159,-1.56516 3.91803,-2.34774c0.94012,1.44476 1.88536,2.85495 2.64361,4.45981c2.76913,5.84566 2.15946,12.02049 2.08005,18.203c-0.4803,0.11399 -1.25136,0.19597 -1.72655,0.2805c0.33045,-7.87448 -1.54339,-15.09317 -6.91515,-20.59557z" fill="#99661d"/><path d="M242.80371,163.02544c0,0 -0.29459,2.40282 -0.32149,2.85623c0,0 -4.82997,1.43964 -6.7243,0.71982l-0.05892,-2.06083c0.03843,-4.11783 -1.24239,-8.5405 -2.00064,-9.92507c-0.36247,-0.6609 -1.82261,-4.43932 -6.27602,-8.39833c-0.76337,-0.67499 -0.50592,-1.94044 0.30996,-2.43099c2.31444,-1.38841 4.62247,-2.77681 6.93435,-4.16523c0.74287,-0.44444 1.62024,-0.11271 2.1236,0.55716c7.08037,9.42427 6.22991,21.87255 6.01345,22.84725zM239.55556,163.93994c0.14345,-5.6894 0.6276,-10.97662 -1.9494,-16.41626c-0.75824,-1.60487 -1.70349,-3.01505 -2.64361,-4.45981c-1.30644,0.78258 -2.61031,1.56644 -3.91803,2.34774c5.07461,5.19756 7.14697,11.48766 7.08293,18.80627v1.4755l1.42043,-0.1806z" fill="#231f20"/></g></g></g></svg>