<svg version="1.1" xmlns="http://www.w3.org/2000/svg" xmlns:xlink="http://www.w3.org/1999/xlink" width="67.70409" height="61.3065" viewBox="0,0,67.70409,61.3065"><g transform="translate(-206.14795,-149.34675)"><g data-paper-data="{&quot;isPaintingLayer&quot;:true}" fill-rule="nonzero" stroke="none" stroke-width="0.5" stroke-linecap="butt" stroke-linejoin="miter" stroke-miterlimit="10" stroke-dasharray="" stroke-dashoffset="0" style="mix-blend-mode: normal"><g><path d="M258.41591,199.171l2.08176,-0.59303c2.22246,0 4.32763,0.00167 6.53494,0.27603c1.79366,0.39912 4.07621,-0.11049 5.38496,1.17935c4.51812,4.45287 -2.75917,9.05975 -6.36516,9.70465c-3.2764,0.58596 -7.18847,0.02993 -10.52806,0.02993c-8.37949,0 -16.29101,-0.25977 -24.18549,-3.41818c-0.31095,-0.17682 -3.67324,-2.07669 -3.86844,-2.23949c-7.09688,-5.91909 -6.28215,-15.38876 -4.0806,-23.31238c0.77583,-2.79229 1.49503,-4.97753 2.99379,-6.81086c-3.64925,0.51044 -7.20543,0.14502 -11.14002,-0.83963c-7.43592,-2.33144 -11.15152,-10.72787 -7.92925,-17.96105c0.8994,-2.01891 1.2803,-2.95524 3.25859,-4.09937c2.41862,-1.39879 4.99998,-0.99881 7.65157,-0.99881c3.54805,0 7.0961,0 10.64415,0c0.58672,-0.86345 1.74643,-0.73459 1.74643,-0.73459c1.65318,0.18449 3.27888,0.58457 4.93485,0.74213c5.69877,0.54222 14.10502,0.52931 17.58592,6.10492c1.31915,2.11298 1.51179,4.53832 1.51819,6.94249c0.00133,0.50029 0.006,4.35816 -0.02993,4.56008c-0.42522,2.39009 -1.84875,4.87121 -3.03849,6.9476c-1.64566,1.98837 -3.05678,3.75864 -5.23242,5.21958c-2.22032,1.49094 -4.15242,2.01419 -5.65063,4.38919c-3.56067,5.64443 1.47882,13.6353 7.21069,15.4105c2.82356,0.87448 6.25452,0.70386 9.28524,0.65778c0.28592,-0.84631 1.21743,-1.15681 1.21743,-1.15681z" fill="#1b9116"/><path d="M223.4165,159.30583c-0.34486,2.49453 -0.9653,4.74734 -4.11576,5.24046c-1.10795,0.17342 -2.42697,0.34691 -3.35205,-0.287c-3.76146,-2.57754 -0.53633,-11.04687 3.97493,-10.49513c0.34541,0.04225 0.66126,0.13586 0.94769,0.27195c0.49146,0.03659 0.95607,0.13055 1.32265,0.43397c0.59545,0.49285 0.82837,1.26756 1.07126,2.03451c0.12613,0.24567 0.24061,0.51685 0.34122,0.81444c0.19377,0.57315 0.09735,1.2749 -0.18993,1.98681z" fill="#914f16"/><path d="M232.72107,164.79712c-0.84785,-0.19693 -1.57512,-0.54378 -2.03465,-1.0338c-1.37042,-1.46133 -0.50195,-4.72071 0.27231,-6.14959c0.5133,-0.94728 1.03634,-2.03486 1.97999,-2.5548c0.99345,-0.54738 2.25821,-0.56976 3.37942,-0.39819c3.48436,0.53318 5.14158,3.89272 4.5417,7.10961c-0.41966,2.25043 -1.31673,4.45838 -4.12407,4.57463c-1.33271,0.05519 -2.89678,-0.26202 -3.80492,-1.23897c-0.0784,-0.08434 -0.14815,-0.18816 -0.20978,-0.30889z" fill="#914f16"/><path d="M253.01198,169.94356c1.11945,0.67167 0.44778,1.79112 0.44778,1.79112l-0.6611,1.06602c-2.71383,3.1323 -5.44178,4.08869 -9.31771,5.19603c-1.71479,0.48991 -3.05814,1.04805 -4.89837,0.94113c-4.41343,-0.25644 -8.92562,-1.63381 -13.20165,-2.70073c0,0 -1.26652,-0.31663 -0.94989,-1.58314c0.31663,-1.26652 1.58315,-0.94989 1.58315,-0.94989c8.24478,2.06546 18.36389,5.00732 24.80207,-2.6026l0.40461,-0.71016c0,0 0.67167,-1.11945 1.79112,-0.44778z" fill="#24540d"/><path d="M241.52611,184.54832c0.72416,1.08624 -0.36208,1.81039 -0.36208,1.81039l-0.94038,0.53552c-4.54254,1.12822 -8.48216,0.23519 -12.96391,-0.51153c-2.17998,-0.36321 -3.33608,-0.56704 -4.97197,-2.1409c0,0 -0.92312,-0.92313 0,-1.84625c0.92312,-0.92312 1.84625,0 1.84625,0c1.43583,1.52138 3.25023,1.34326 5.22148,1.78014c3.4121,0.75621 6.80147,1.05012 10.23489,0.18551l0.12532,-0.17496c0,0 1.08624,-0.72416 1.8104,0.36208z" fill="#24540d"/><path d="M240.91674,195.50621c0.12681,-0.37484 0.44105,-0.83925 1.21969,-0.83925c1.3055,0 1.3055,1.3055 1.3055,1.3055l-0.32301,0.98829c-4.69083,5.31804 -13.829,3.35669 -19.87893,1.54835c0,0 -1.25044,-0.37513 -0.8753,-1.62557c0.37513,-1.25044 1.62557,-0.87531 1.62557,-0.87531c3.56806,1.07401 6.66646,1.48839 10.42897,1.48839c2.90884,0 4.53022,0.1311 6.49752,-1.9904z" fill="#24540d"/><path d="M240.7444,189.1328c0.92312,0.92312 0,1.84625 0,1.84625l-1.06084,0.98981c-5.67107,3.14891 -13.05402,1.63071 -18.33603,-1.85565c0,0 -1.08624,-0.72416 -0.36208,-1.8104c0.72416,-1.08624 1.8104,-0.36208 1.8104,-0.36208c4.41311,2.97783 10.8541,4.39476 15.6197,1.74572l0.4826,-0.55364c0,0 0.92313,-0.92312 1.84625,0z" fill="#24540d"/><path d="M228.22616,204.59001c0,-1.3055 1.3055,-1.3055 1.3055,-1.3055l0.52491,0.00536c1.38303,-0.12447 2.83915,0.04985 4.20315,-0.1242c1.88942,-0.2411 3.85612,-1.24794 5.64651,-1.8664c1.72607,-0.59624 3.51213,-1.25562 4.27805,-2.95239c0,0 0.58383,-1.16767 1.7515,-0.58384c1.16767,0.58384 0.58384,1.7515 0.58384,1.7515c-2.81113,5.29187 -10.96129,5.89169 -16.22666,6.37559l-0.76129,0.00536c0,0 -1.3055,0 -1.3055,-1.3055z" fill="#24540d"/><path d="M243.05651,209.03167c-0.10247,0.24292 -0.55587,1.12298 -1.62798,0.76561c-1.2385,-0.41283 -0.82567,-1.65134 -0.82567,-1.65134l0.69545,-1.09248c2.81819,-1.67657 4.13687,-4.15264 5.23269,-7.17252c0,0 0.44614,-1.22689 1.67304,-0.78075c1.2269,0.44614 0.78075,1.67304 0.78075,1.67304c-1.25714,3.45032 -2.8586,6.25298 -5.92828,8.25844z" fill="#24540d"/><path d="M251.66623,209.51928l-2.33819,-0.53228c0.76816,-2.80133 1.76719,-5.36553 2.29022,-8.25035c0,0 0.23354,-1.28444 1.51797,-1.0509c1.28444,0.23353 1.0509,1.51797 1.0509,1.51797c-0.45473,2.49436 -1.25613,4.77191 -1.96264,7.14751c0.25118,0.63756 -0.20671,1.24808 -0.20671,1.24808l-0.14164,-0.03224c-0.00975,0.03561 -0.01946,0.07125 -0.02913,0.10693z" fill="#24540d"/><path d="M255.96262,210.569c-1.2385,-0.41283 -0.82567,-1.65134 -0.82567,-1.65134l0.08269,-0.20656c0.50655,-2.78548 0.49342,-5.42257 0.49342,-8.2554c0,0 0,-1.3055 1.3055,-1.3055c1.3055,0 1.3055,1.3055 1.3055,1.3055c0,2.98705 -0.0008,5.78081 -0.53554,8.72247l-0.17456,0.56516c0,0 -0.41283,1.2385 -1.65133,0.82567z" fill="#24540d"/></g></g></g></svg>