<svg version="1.1" xmlns="http://www.w3.org/2000/svg" xmlns:xlink="http://www.w3.org/1999/xlink" width="67.70409" height="61.30649" viewBox="0,0,67.70409,61.30649"><g transform="translate(-206.14795,-149.34676)"><g data-paper-data="{&quot;isPaintingLayer&quot;:true}" fill-rule="nonzero" stroke="none" stroke-width="0.5" stroke-linecap="butt" stroke-linejoin="miter" stroke-miterlimit="10" stroke-dasharray="" stroke-dashoffset="0" style="mix-blend-mode: normal"><path d="M221.58408,199.17102c0,0 0.93151,0.3105 1.21743,1.15681c3.03072,0.04608 6.46168,0.2167 9.28524,-0.65778c5.73187,-1.7752 10.77136,-9.76607 7.21069,-15.4105c-1.49821,-2.375 -3.43031,-2.89825 -5.65063,-4.38919c-2.17564,-1.46094 -3.58676,-3.23121 -5.23242,-5.21958c-1.18974,-2.07639 -2.61327,-4.55751 -3.03849,-6.9476c-0.03593,-0.20192 -0.03126,-4.05979 -0.02993,-4.56008c0.0064,-2.40417 0.19904,-4.82951 1.51819,-6.94249c3.4809,-5.57561 11.88715,-5.5627 17.58592,-6.10492c1.65597,-0.15756 3.28167,-0.55764 4.93485,-0.74213c0,0 1.15971,-0.12886 1.74643,0.73459c3.54805,0 7.0961,0 10.64415,0c2.65159,0 5.23295,-0.39998 7.65157,0.99881c1.97829,1.14413 2.35919,2.08046 3.25859,4.09937c3.22227,7.23318 -0.49333,15.62961 -7.92925,17.96105c-3.93459,0.98465 -7.49077,1.35007 -11.14002,0.83963c1.49876,1.83333 2.21796,4.01857 2.99379,6.81086c2.20155,7.92362 3.01628,17.39329 -4.0806,23.31238c-0.1952,0.1628 -3.55749,2.06267 -3.86844,2.23949c-7.89448,3.15841 -15.806,3.41818 -24.18549,3.41818c-3.33959,0 -7.25166,0.55603 -10.52806,-0.02993c-3.60599,-0.6449 -10.88328,-5.25178 -6.36516,-9.70465c1.30875,-1.28984 3.5913,-0.78023 5.38496,-1.17935c2.20731,-0.27436 4.31248,-0.27603 6.53494,-0.27603l2.08176,0.59303z" data-paper-data="{&quot;index&quot;:null}" fill="#1b9116"/><path d="M256.5835,159.30583c-0.28728,-0.71191 -0.3837,-1.41366 -0.18993,-1.98681c0.10061,-0.29759 0.21509,-0.56877 0.34122,-0.81444c0.24289,-0.76695 0.47581,-1.54166 1.07126,-2.03451c0.36658,-0.30342 0.83119,-0.39738 1.32265,-0.43397c0.28643,-0.13609 0.60228,-0.2297 0.94769,-0.27195c4.51126,-0.55174 7.73639,7.91759 3.97493,10.49513c-0.92508,0.63391 -2.2441,0.46042 -3.35205,0.287c-3.15046,-0.49312 -3.7709,-2.74593 -4.11576,-5.24046z" data-paper-data="{&quot;index&quot;:null}" fill="#914f16"/><path d="M247.06916,165.106c-0.90814,0.97695 -2.47221,1.29416 -3.80492,1.23897c-2.80734,-0.11625 -3.70441,-2.3242 -4.12407,-4.57463c-0.59988,-3.21689 1.05734,-6.57643 4.5417,-7.10961c1.12121,-0.17157 2.38597,-0.14919 3.37942,0.39819c0.94365,0.51994 1.46669,1.60752 1.97999,2.5548c0.77426,1.42888 1.64273,4.68826 0.27231,6.14959c-0.45953,0.49002 -1.1868,0.83687 -2.03465,1.0338c-0.06163,0.12073 -0.13138,0.22455 -0.20978,0.30889z" data-paper-data="{&quot;index&quot;:null}" fill="#914f16"/><path d="M226.98802,169.94355c1.11945,-0.67167 1.79112,0.44778 1.79112,0.44778l0.40461,0.71016c6.43818,7.60992 16.55729,4.66806 24.80207,2.6026c0,0 1.26652,-0.31663 1.58315,0.94989c0.31663,1.26651 -0.94989,1.58314 -0.94989,1.58314c-4.27603,1.06692 -8.78822,2.44429 -13.20165,2.70073c-1.84023,0.10692 -3.18358,-0.45122 -4.89837,-0.94113c-3.87593,-1.10734 -6.60388,-2.06373 -9.31771,-5.19603l-0.6611,-1.06602c0,0 -0.67167,-1.11945 0.44778,-1.79112z" data-paper-data="{&quot;index&quot;:null}" fill="#24540d"/><path d="M240.2843,184.18623l0.12532,0.17496c3.43342,0.86461 6.82279,0.5707 10.23489,-0.18551c1.97125,-0.43688 3.78565,-0.25876 5.22148,-1.78014c0,0 0.92313,-0.92312 1.84625,0c0.92312,0.92312 0,1.84625 0,1.84625c-1.63589,1.57386 -2.79199,1.77769 -4.97197,2.1409c-4.48175,0.74672 -8.42137,1.63975 -12.96391,0.51153l-0.94038,-0.53552c0,0 -1.08624,-0.72415 -0.36208,-1.81039c0.72416,-1.08624 1.8104,-0.36208 1.8104,-0.36208z" data-paper-data="{&quot;index&quot;:null}" fill="#24540d"/><path d="M239.08326,195.5062c1.9673,2.1215 3.58868,1.9904 6.49752,1.9904c3.76251,0 6.86091,-0.41438 10.42897,-1.48839c0,0 1.25044,-0.37513 1.62557,0.87531c0.37514,1.25044 -0.8753,1.62557 -0.8753,1.62557c-6.04993,1.80834 -15.1881,3.76969 -19.87893,-1.54835l-0.32301,-0.98829c0,0 0,-1.3055 1.3055,-1.3055c0.77864,0 1.09288,0.46441 1.21969,0.83925z" data-paper-data="{&quot;index&quot;:null}" fill="#24540d"/><path d="M239.25561,189.1328c0.92312,-0.92312 1.84625,0 1.84625,0l0.4826,0.55364c4.7656,2.64904 11.20659,1.23211 15.6197,-1.74572c0,0 1.08624,-0.72416 1.8104,0.36208c0.72416,1.08624 -0.36208,1.8104 -0.36208,1.8104c-5.28201,3.48636 -12.66496,5.00456 -18.33603,1.85565l-1.06084,-0.98981c0,0 -0.92312,-0.92313 0,-1.84625z" data-paper-data="{&quot;index&quot;:null}" fill="#24540d"/><path d="M251.77384,204.58998c0,1.3055 -1.3055,1.3055 -1.3055,1.3055l-0.76129,-0.00536c-5.26537,-0.4839 -13.41553,-1.08372 -16.22666,-6.37559c0,0 -0.58383,-1.16766 0.58384,-1.7515c1.16767,-0.58383 1.7515,0.58384 1.7515,0.58384c0.76592,1.69677 2.55198,2.35615 4.27805,2.95239c1.79039,0.61846 3.75709,1.6253 5.64651,1.8664c1.364,0.17405 2.82012,-0.00027 4.20315,0.1242l0.52491,-0.00536c0,0 1.3055,0 1.3055,1.3055z" data-paper-data="{&quot;index&quot;:null}" fill="#24540d"/><path d="M231.01522,200.77322c0,0 -0.44615,-1.2269 0.78075,-1.67304c1.2269,-0.44614 1.67304,0.78075 1.67304,0.78075c1.09582,3.01988 2.4145,5.49595 5.23269,7.17252l0.69545,1.09248c0,0 0.41283,1.23851 -0.82567,1.65134c-1.07211,0.35737 -1.52551,-0.52269 -1.62798,-0.76561c-3.06968,-2.00546 -4.67114,-4.80812 -5.92828,-8.25844z" data-paper-data="{&quot;index&quot;:null}" fill="#24540d"/><path d="M228.153,209.67399c-0.00967,-0.03568 -0.01938,-0.07132 -0.02913,-0.10693l-0.14164,0.03224c0,0 -0.45789,-0.61052 -0.20671,-1.24808c-0.70651,-2.3756 -1.50791,-4.65315 -1.96264,-7.14751c0,0 -0.23354,-1.28444 1.0509,-1.51797c1.28443,-0.23354 1.51797,1.0509 1.51797,1.0509c0.52303,2.88482 1.52206,5.44902 2.29022,8.25035l-2.33819,0.53228z" data-paper-data="{&quot;index&quot;:null}" fill="#24540d"/><path d="M224.03738,210.56899c-1.2385,0.41283 -1.65133,-0.82567 -1.65133,-0.82567l-0.17456,-0.56516c-0.53474,-2.94166 -0.53554,-5.73542 -0.53554,-8.72247c0,0 0,-1.3055 1.3055,-1.3055c1.3055,0 1.3055,1.3055 1.3055,1.3055c0,2.83283 -0.01313,5.46992 0.49342,8.2554l0.08269,0.20656c0,0 0.41283,1.23851 -0.82567,1.65134z" data-paper-data="{&quot;index&quot;:null}" fill="#24540d"/></g></g></svg>