<svg version="1.1" xmlns="http://www.w3.org/2000/svg" xmlns:xlink="http://www.w3.org/1999/xlink" width="27.88611" height="9.89008" viewBox="0,0,27.88611,9.89008"><g transform="translate(-226.05694,-175.05496)"><g data-paper-data="{&quot;isPaintingLayer&quot;:true}" fill-rule="nonzero" stroke="none" stroke-width="0.5" stroke-linecap="butt" stroke-linejoin="miter" stroke-miterlimit="10" stroke-dasharray="" stroke-dashoffset="0" style="mix-blend-mode: normal"><g><path d="M227.93194,177.86366c4.87378,-2.74155 15.16936,-2.14228 20.11721,-2.14228c2.97627,0 7.1855,3.00736 5.51393,6.3505c-0.56336,1.12673 -1.94938,1.69795 -3.14447,2.09631c-1.62924,0.54308 -1.86036,-0.91311 -3.04508,-0.92345c-0.25879,-0.00226 -7.95677,-0.28067 -9.76507,0.30261c-0.56564,0.18246 -3.75063,0.79578 -6.32576,1.04601c-0.45293,0.19409 -0.9518,0.30155 -1.47576,0.30155c-0.49215,0 -0.96216,-0.09481 -1.39276,-0.26716c-1.38144,-0.55292 -2.35724,-1.90393 -2.35724,-3.48284c0,-1.22036 0.58293,-2.30456 1.48553,-2.98936c0.11545,-0.11176 0.24418,-0.21016 0.38947,-0.29189z" fill="#1b9116"/><path d="M247.14184,183.54694c-0.48507,-0.12127 -0.3638,-0.60634 -0.3638,-0.60634l0.05698,-0.2272c0.54626,-2.45815 1.70648,-4.81715 3.49468,-6.60534c0,0 0.35356,-0.35356 0.70711,0c0.35356,0.35356 0,0.70711 0,0.70711c-1.65476,1.65476 -2.72,3.84001 -3.22559,6.11516l-0.06302,0.25281c0,0 -0.12127,0.48507 -0.60634,0.3638z" fill="#24540d"/><path d="M244.02298,183.38186c-0.5,0 -0.5,-0.5 -0.5,-0.5v-0.06c0.0118,-2.34888 1.30516,-4.66526 1.81197,-6.94874c0,0 0.10847,-0.48809 0.59656,-0.37963c0.48809,0.10846 0.37963,0.59656 0.37963,0.59656c-0.48565,2.18284 -1.80195,4.48979 -1.78816,6.73181v0.06c0,0 0,0.5 -0.5,0.5z" fill="#24540d"/><path d="M239.90501,183.49507c-0.49319,0.0822 -0.57539,-0.411 -0.57539,-0.411l-0.0549,-0.55068c0.55385,-2.49234 1.19221,-4.72505 1.99383,-7.12993c0,0 0.15811,-0.47434 0.63245,-0.31623c0.47434,0.15812 0.31623,0.63246 0.31623,0.63246c-0.79246,2.37739 -1.41881,4.5668 -1.96633,7.03063l0.06511,0.16935c0,0 0.08219,0.4932 -0.411,0.5754z" fill="#24540d"/><path d="M235.02262,184.2219c-0.5,0 -0.5,-0.5 -0.5,-0.5v-0.18c0.00326,-2.41751 0.68739,-5.95815 2.28045,-7.8257c0,0 0.3254,-0.37962 0.70503,-0.05423c0.37963,0.32539 0.05424,0.70502 0.05424,0.70502c-1.43754,1.6679 -2.04293,5.01784 -2.03972,7.17491v0.18c0,0 0,0.5 -0.5,0.5z" fill="#24540d"/><path d="M232.1697,184.66553c-0.2236,0.44721 -0.67082,0.2236 -0.67082,0.2236l-0.56412,-0.29312c-1.71491,-1.98838 -0.69538,-5.8282 0.13956,-8.06996c0,0 0.17556,-0.46816 0.64372,-0.29261c0.46816,0.17556 0.29261,0.64373 0.29261,0.64373c-0.63339,1.67593 -1.76017,5.39527 -0.46047,6.93063l0.39592,0.1869c0,0 0.44721,0.22361 0.2236,0.67082z" fill="#24540d"/><path d="M227.24945,180.05492c0,-0.41421 0.33579,-0.75 0.75,-0.75c0.41421,0 0.75,0.33579 0.75,0.75c0,0.41421 -0.33579,0.75 -0.75,0.75c-0.41421,0 -0.75,-0.33579 -0.75,-0.75z" fill="#914f16"/><path d="M227.52931,182.85354c0,-0.41421 0.33579,-0.75 0.75,-0.75c0.41421,0 0.75,0.33579 0.75,0.75c0,0.41421 -0.33579,0.75 -0.75,0.75c-0.41421,0 -0.75,-0.33579 -0.75,-0.75z" fill="#914f16"/></g></g></g></svg>